<mxfile host="app.diagrams.net" modified="2024-04-02T08:34:21.507Z" agent="Mozilla/5.0 (Windows NT 10.0; Win64; x64) AppleWebKit/537.36 (KHTML, like Gecko) Chrome/123.0.0.0 Safari/537.36 Edg/123.0.0.0" etag="qmSV26hhFjBaDR0nZW8P" version="24.2.1" type="github">
  <diagram name="Page-1" id="52So7O7gCRZ_WB25PWDG">
    <mxGraphModel dx="936" dy="569" grid="1" gridSize="10" guides="1" tooltips="1" connect="1" arrows="1" fold="1" page="1" pageScale="1" pageWidth="850" pageHeight="1100" math="0" shadow="0">
      <root>
        <mxCell id="0" />
        <mxCell id="1" parent="0" />
        <mxCell id="E3rKdLnavc9v0Z9FRh---2" value="" style="shape=image;verticalLabelPosition=bottom;verticalAlign=top;imageAspect=0;aspect=fixed;image=data:image/svg+xml,PHN2ZyB4bWxucz0iaHR0cDovL3d3dy53My5vcmcvMjAwMC9zdmciIGlkPSJ0cmFuc3BvcnQtbWFuYWdlbWVudCIgdmlld0JveD0iNC4wMDAwMDA0NzY4MzcxNTggNCA0OC4wMDA5OTk0NTA2ODM1OTQgNDguMDAwMzg1Mjg0NDIzODMiIHdpZHRoPSI0OC4wMDA5OTk0NTA2ODM1OTQiIGhlaWdodD0iNDguMDAwMzg1Mjg0NDIzODMiPjxkZWZzPjxzdHlsZT4uY2xzLTF7ZmlsbDojMGE2ZWQxO30uY2xzLTJ7ZmlsbDojMDUzYjcwO308L3N0eWxlPjwvZGVmcz48dGl0bGU+dHJhbnNwb3J0LW1hbmFnZW1lbnQ8L3RpdGxlPjxwYXRoIGNsYXNzPSJjbHMtMSIgZD0iTTQyLjM3MSw1MmE1LjQsNS40LDAsMCwxLTMuNTE0LTEuMjQ1QTUuNDc2LDUuNDc2LDAsMCwxLDM3LDQ3Ljg3NUgzMy4yOTFhNS4xOTQsNS4xOTQsMCwwLDEtMS44LDIuODgsNS41ODMsNS41ODMsMCwwLDEtNy4wMjksMCw1LjQ4Miw1LjQ4MiwwLDAsMS0xLjg1OC0yLjg4SDIwLjc3NmEyLjM1MSwyLjM1MSwwLDAsMS0yLjQzLTIuNDM3VjM5LjI1YTIuMjI2LDIuMjI2LDAsMCwxLC4yNjItMS4wMzEsMi4yMiwyLjIyLDAsMCwxLS4yNjItMS4wMzFWMjYuODc1YTIuMzUyLDIuMzUyLDAsMCwxLDIuNDMtMi40MzdIMzcuMjI5YTIuNDA5LDIuNDA5LDAsMCwxLDEuNy42ODIsMi4yODcsMi4yODcsMCwwLDEsLjcsMS4zOGguODdhOC40NDQsOC40NDQsMCwwLDEsMy4wMjQuNTQxLDguNjczLDguNjczLDAsMCwxLDIuNTUzLDEuNTE0QTkuMDczLDkuMDczLDAsMCwxLDQ4LDMwLjg0MmE4LjUwOSw4LjUwOSwwLDAsMSwxLjA0MywyLjg2NWwuNDY3LDMuMWguMDY0YTIuNDEsMi40MSwwLDAsMSwxLjcuNjgzQTIuMzMyLDIuMzMyLDAsMCwxLDUyLDM5LjI1djYuMTg4YTIuMzI4LDIuMzI4LDAsMCwxLS43MjcsMS43NTQsMi40LDIuNCwwLDAsMS0xLjcuNjgzSDQ3LjY4OGE1LjIsNS4yLDAsMCwxLTEuOCwyLjg4QTUuNDEsNS40MSwwLDAsMSw0Mi4zNzEsNTJabTAtOC4yNWEyLjcsMi43LDAsMSwwLDEuOTE5Ljc5MkEyLjU4NywyLjU4NywwLDAsMCw0Mi4zNzEsNDMuNzVabS0xNC40LDBhMi43LDIuNywwLDEsMCwxLjkyLjc5MkEyLjU4OSwyLjU4OSwwLDAsMCwyNy45NzQsNDMuNzVabTE5LjcxMSwxLjMxMkg0OS4yVjM5LjYyNUgyMS4xNXY1LjQzN2gxLjQ1NWE1LjYzMSw1LjYzMSwwLDAsMSwxLjg1Mi0yLjg0NCw1LjQ4Niw1LjQ4NiwwLDAsMSw4LjgzMSwyLjg0NEgzN2E1LjYyNSw1LjYyNSwwLDAsMSwxLjg1Mi0yLjg0NCw1LjQ4Nyw1LjQ4NywwLDAsMSw4LjgzMSwyLjg0NFptLTguMDI1LTguMjVoNy4wMjZsLS40NDEtMi42NTdhNS44MTksNS44MTksMCwwLDAtNS43MzgtNC44NDNIMzkuNjZabS0xOC41MSwwaDE1LjdWMjcuMjVIMjEuMTVaIi8+PHBhdGggY2xhc3M9ImNscy0yIiBkPSJNMTUuMzA3LDI4SDExLjU3NWMtMy4xNjYsMC00LjU4My0yLjcxOS00LjU4My01LjQxNWE1LjM4NSw1LjM4NSwwLDAsMSwzLjcyNy01LjEwOWwyLjI2NS0uNzY5LS4yMjMtMi4zODRhOC4wNTgsOC4wNTgsMCwwLDEsMS41MTUtNS4zMzVDMTUuMzEsNy43ODYsMTYuNDcxLDcsMTkuMDkzLDdhNS45MjgsNS45MjgsMCwwLDEsNS44MzMsNC4wMzlsMS4zLDMuMjg5TDI5LjI1MSwxMi41YTMuOTA2LDMuOTA2LDAsMCwxLDIuMDM5LS41OTFBMy45ODMsMy45ODMsMCwwLDEsMzUuMiwxNS4xNjFsLjI4NywxLjUyOSwxLjQxMS42NDVBNS41NzcsNS41NzcsMCwwLDEsNDAuMTEsMjJoMy4wMjFhOC41NzMsOC41NzMsMCwwLDAtNC45OTUtNy4zOTUsNi45NzYsNi45NzYsMCwwLDAtNi44NDYtNS43LDYuOSw2LjksMCwwLDAtMy41ODQsMS4wMjJBOS40MjgsOS40MjgsMCwwLDAsMTkuMDIsNEM4Ljg5MSw0LDkuNzg1LDE0LjYyNiw5Ljc4NSwxNC42MjZBOC4zODUsOC4zODUsMCwwLDAsNCwyMi41ODVDNCwyNy4yMzIsNi45NDEsMzEsMTEuNTc1LDMxaDMuNzMyWiIvPjwvc3ZnPg==;" vertex="1" parent="1">
          <mxGeometry x="620" y="350" width="48" height="48" as="geometry" />
        </mxCell>
        <mxCell id="E3rKdLnavc9v0Z9FRh---3" value="" style="shape=image;verticalLabelPosition=bottom;verticalAlign=top;imageAspect=0;aspect=fixed;image=data:image/svg+xml,PHN2ZyB4bWxucz0iaHR0cDovL3d3dy53My5vcmcvMjAwMC9zdmciIGlkPSJjbG91ZGNvbm5lY3RvciIgdmlld0JveD0iMy45OTkyODQ1MDU4NDQxMTYgMy45OTk5OTk1MjMxNjI4NDIgNDguMDAwNzE3MTYzMDg1OTQgNDgiIHdpZHRoPSI0OC4wMDA3MTcxNjMwODU5NCIgaGVpZ2h0PSI0OCI+PGRlZnM+PHN0eWxlPi5jbHMtMXtmaWxsOiM3ZjdmN2Y7fTwvc3R5bGU+PC9kZWZzPjx0aXRsZT5jbG91ZGNvbm5lY3RvcjwvdGl0bGU+PHBhdGggY2xhc3M9ImNscy0xIiBkPSJNMTkuMTA5LDdhNi40NTUsNi40NTUsMCwwLDEsNS44NjQsNC4wMzNsMS4zMDcsMy4yOUwyOS4zMSwxMi41YTMuOTIyLDMuOTIyLDAsMCwxLDIuMDQzLS41OTEsMy45ODgsMy45ODgsMCwwLDEsMy45MTQsMy4yNDlsLjI4OCwxLjUyOSwxLjQxNS42NDZhNS4zNTEsNS4zNTEsMCwwLDEsMyw0LjY3SDQzYTguMzU1LDguMzU1LDAsMCwwLTQuNzg1LTcuNEE2Ljk0MSw2Ljk0MSwwLDAsMCwyNy43NjIsOS45MjgsOS40NTIsOS40NTIsMCwwLDAsMTkuMDU1LDRDOC43MDUsNC41NDgsOS44LDE0LjYyMSw5LjgsMTQuNjIxQTguMzg3LDguMzg3LDAsMCwwLDEyLjQxLDMwLjk4NkgxOXYtM0gxMi40MWE1LjM4Nyw1LjM4NywwLDAsMS0xLjY3NS0xMC41MTVsMi4zMDgtLjc1OUwxMi43ODEsMTQuM2E4LjEsOC4xLDAsMCwxLDEuNS01LjI4NEE2LjUsNi41LDAsMCwxLDE5LjEwOSw3WiIvPjxwYXRoIGNsYXNzPSJjbHMtMSIgZD0iTTUyLDUwLjEyNSw1MC4zMTIsNTJsLTUuOTA2LTUuODEyTDQ0LjU5NCw0NmwtMS43ODIsMS42ODhhNy43ODMsNy43ODMsMCwwLDEtNS4zNDMsMi4zNDMsNy4wNTIsNy4wNTIsMCwwLDEtNS4yNS0yLjM0M0wyOS43ODEsNDUuMjVsLTQuMzEyLTQuMTI1YTcuNjY3LDcuNjY3LDAsMCwxLTIuNDM4LTUuNTc4LDcuMzgsNy4zOCwwLDAsMSwyLjQzOC01LjQ4NWwxLjEyNS0xLjIxOEwxOSwyMS4wNjIsMjAuOTY5LDE5bDcuNTkzLDcuNzgxLDEuMjE5LTEuMjE5YTYuMTYxLDYuMTYxLDAsMCwxLDIuNDM4LTEuNzgxLDcuNzQ2LDcuNzQ2LDAsMCwxLDIuOTA2LS41NjIsOC4xLDguMSwwLDAsMSw1LjYyNSwyLjM0M2w0LjIxOSw0LjV2LjA5NGwyLjQzNywyLjQzOGE3LjE1Nyw3LjE1NywwLDAsMSwwLDEwLjU5NGwtMS4xMjUsMS4xMjRaTTI2LjAzMSwzNS41YTQuNzU1LDQuNzU1LDAsMCwwLDEuNSwzLjQ2OWwyLjE1NywyLjE1Nkw0MC43NSwzMC4wNjIsMzguNSwyNy42MjVhNC42LDQuNiwwLDAsMC0zLjM3NS0xLjQwNiwzLjg2NSwzLjg2NSwwLDAsMC0zLjA5NCwxLjMxMmwtNC40MDYsNC42ODhBNC4wODIsNC4wODIsMCwwLDAsMjYuMDMxLDM1LjVabTE5LjMxMyw1LjUzMWEzLjkxMywzLjkxMywwLDAsMCwxLjQwNi0zLjA5Myw0LjM1MSw0LjM1MSwwLDAsMC0xLjMxMi0zLjE4OGwtMi42MjYtMi41MzFMMzEuOTM4LDQzLjE4OGwyLjM0MywyLjM0M2guMDk0bC4wOTQuMDk0YTMuODE0LDMuODE0LDAsMCwwLDMsMS40MDYsNC40NzQsNC40NzQsMCwwLDAsMy4xODctMS41WiIvPjwvc3ZnPg==;" vertex="1" parent="1">
          <mxGeometry x="340" y="270" width="48" height="48" as="geometry" />
        </mxCell>
        <mxCell id="E3rKdLnavc9v0Z9FRh---4" value="" style="shape=image;verticalLabelPosition=bottom;verticalAlign=top;imageAspect=0;aspect=fixed;image=data:image/svg+xml,PHN2ZyB4bWxucz0iaHR0cDovL3d3dy53My5vcmcvMjAwMC9zdmciIGlkPSJzYXAtaGFuYS1jbG91ZC1jb25uZWN0b3IiIHZpZXdCb3g9IjMuOTk5Mjg0NTA1ODQ0MTE2IDMuOTk5OTk5NTIzMTYyODQyIDQ4LjAwMDcxNzE2MzA4NTk0IDQ4IiB3aWR0aD0iNDguMDAwNzE3MTYzMDg1OTQiIGhlaWdodD0iNDgiPjxkZWZzPjxzdHlsZT4uY2xzLTF7ZmlsbDojMGE2ZWQxO30uY2xzLTJ7ZmlsbDojMDUzYjcwO308L3N0eWxlPjwvZGVmcz48dGl0bGU+c2FwLWhhbmEtY2xvdWQtY29ubmVjdG9yPC90aXRsZT48cGF0aCBjbGFzcz0iY2xzLTEiIGQ9Ik00MS41LDQ5aC05YTEuNSwxLjUsMCwwLDAsMCwzaDlhMS41LDEuNSwwLDAsMCwwLTNaIi8+PHBhdGggY2xhc3M9ImNscy0xIiBkPSJNNDguOTkxLDI1SDI1LjAwOUEzLjAwOSwzLjAwOSwwLDAsMCwyMiwyOC4wMDlWNDIuOTkxQTMuMDA5LDMuMDA5LDAsMCwwLDI1LjAwOSw0Nkg0OC45OTFBMy4wMDksMy4wMDksMCwwLDAsNTIsNDIuOTkxVjI4LjAwOUEzLjAwOSwzLjAwOSwwLDAsMCw0OC45OTEsMjVabTAsMThMMjUsNDIuOTkxLDI1LjAwOSwyOEg0OC45OTFsLjAwOS4wMDlaIi8+PHBhdGggY2xhc3M9ImNscy0yIiBkPSJNMTkuMTA5LDdhNi40NTUsNi40NTUsMCwwLDEsNS44NjQsNC4wMzNsMS4zMDcsMy4yOUwyOS4zMSwxMi41YTMuOTIyLDMuOTIyLDAsMCwxLDIuMDQzLS41OTEsMy45ODgsMy45ODgsMCwwLDEsMy45MTQsMy4yNDlsLjI4OCwxLjUyOSwxLjQxNS42NDZhNS4zNTEsNS4zNTEsMCwwLDEsMyw0LjY3SDQzYTguMzU1LDguMzU1LDAsMCwwLTQuNzg1LTcuNEE2Ljk0MSw2Ljk0MSwwLDAsMCwyNy43NjIsOS45MjgsOS40NTIsOS40NTIsMCwwLDAsMTkuMDU1LDRDOC42NSw0LDkuOCwxNC42MjEsOS44LDE0LjYyMUE4LjM4Nyw4LjM4NywwLDAsMCwxMi40MSwzMC45ODZIMTl2LTNIMTIuNDFhNS4zODcsNS4zODcsMCwwLDEtMS42NzUtMTAuNTE1bDIuMzA4LS43NTlMMTIuNzgxLDE0LjNhOC4xLDguMSwwLDAsMSwxLjUtNS4yODRBNi41LDYuNSwwLDAsMSwxOS4xMDksN1oiLz48L3N2Zz4=;" vertex="1" parent="1">
          <mxGeometry x="490" y="360" width="48" height="48" as="geometry" />
        </mxCell>
        <mxCell id="E3rKdLnavc9v0Z9FRh---5" value="" style="shape=image;verticalLabelPosition=bottom;verticalAlign=top;imageAspect=0;aspect=fixed;image=data:image/svg+xml,PHN2ZyB4bWxucz0iaHR0cDovL3d3dy53My5vcmcvMjAwMC9zdmciIGlkPSJkZXN0aW5hdGlvbiIgdmlld0JveD0iNi45OTg2NDcyMTI5ODIxNzggMy45OTg2MTYyMTg1NjY4OTQ1IDQyLjAwMTM1NDIxNzUyOTMgNDguMDAyNTI5MTQ0Mjg3MTEiIHdpZHRoPSI0Mi4wMDEzNTQyMTc1MjkzIiBoZWlnaHQ9IjQ4LjAwMjUyOTE0NDI4NzExIj48ZGVmcz48c3R5bGU+LmNscy0xe2ZpbGw6IzA1M2I3MDt9LmNscy0ye2ZpbGw6IzBhNmVkMTt9PC9zdHlsZT48L2RlZnM+PHRpdGxlPmRlc3RpbmF0aW9uPC90aXRsZT48cGF0aCBjbGFzcz0iY2xzLTEiIGQ9Ik0xOSw1MkgxMC4wOTRhMy4wNzIsMy4wNzIsMCwwLDEtMi4yLS44NDRBMi44MzcsMi44MzcsMCwwLDEsNyw0OVYxNkwxOSw0SDQwYTIuODQxLDIuODQxLDAsMCwxLDIuMTU2Ljg5MUEyLjk2MiwyLjk2MiwwLDAsMSw0Myw3djNINDBWN0gyMnY5YTIuODQ0LDIuODQ0LDAsMCwxLS44OTEsMi4xNTZBMi45NjIsMi45NjIsMCwwLDEsMTksMTlIMTBWNDloOVoiLz48cGF0aCBjbGFzcz0iY2xzLTIiIGQ9Ik0yNy45MzgsNDEuODYzLDI0LjcxNiw0MC4ybC0yLjAyNCwxLjg1OUwyMC4xMTUsMzkuNTJsMS43NjQtMS43NjQtMS4zNjctMy41MjdMMTgsMzQuMmwwLTMuNTc2aDIuNDc5bDEuNDctMy41NTEtMS44MzQtMS44NDUsMi41My0yLjU3NCwxLjkxMiwxLjkxMSwzLjM4MS0xLjQtLjAxNS0yLjc1NCwzLjc2NS4wMTd2Mi43MzdsMy4zOCwxLjRMMzcuMDg0LDIyLjgsMzkuNTEsMjUuNDhsLTEuNzY0LDEuNzY0LDEuNCwzLjM4MSwyLjY2Ni4xODdWMzIuNWgzVjMwLjgxMmEzLjEyNSwzLjEyNSwwLDAsMC0zLjE4OC0zLjE4N2gtLjAybC4wODItLjA3OWEzLjI3NSwzLjI3NSwwLDAsMCwuODU4LTIuMjE4LDMuMDc2LDMuMDc2LDAsMCwwLS45MTQtMi4yMjFsLTIuNDI2LTIuNDI1YTMuMjYxLDMuMjYxLDAsMCwwLTQuNDk0LDBsLS4wMjMuMDIzdi0uMDE3QTMuMTI1LDMuMTI1LDAsMCwwLDMxLjUsMTcuNUgyOC4xMjVhMy4xMjMsMy4xMjMsMCwwLDAtMy4xODcsMy4xODh2LjAxN2wtLjAyNC0uMDIzYTMuMjYxLDMuMjYxLDAsMCwwLTQuNDk0LDBsLTIuNDI2LDIuNDI1YTMuMDgsMy4wOCwwLDAsMC0uOTE0LDIuMjIxLDMuMzA5LDMuMzA5LDAsMCwwLC45MTQsMi4yNzRsLjAyNC4wMjNIMThhMy4xMjMsMy4xMjMsMCwwLDAtMy4xODcsMy4xODd2My4zNzZhMy4xNzcsMy4xNzcsMCwwLDAsLjg4NCwyLjIxNywzLjA4OCwzLjA4OCwwLDAsMCwyLjMuOTdoLjAxOGwtLjAyNC4wMjNhMy4yMiwzLjIyLDAsMCwwLDAsNC40OTVsMi40MjYsMi40MjVhMy4yNDUsMy4yNDUsMCwwLDAsNC41MTgtLjAyM3YuMDE3YTMuMTc4LDMuMTc4LDAsMCwwLC44ODQsMi4yMTgsMy4wODgsMy4wODgsMCwwLDAsMi4zLjk3aDEuNjg4di0zbC0xLjg3NS0uMTg4WiIvPjxwYXRoIGNsYXNzPSJjbHMtMiIgZD0iTTI5LjgxMywyOS41QTIuOTU4LDIuOTU4LDAsMCwxLDMyLjM1MiwzMUgzNS42YTUuOTg3LDUuOTg3LDAsMSwwLTcuMjg2LDcuMjg3VjM1LjAzOWEyLjk1NiwyLjk1NiwwLDAsMS0xLjUtMi41MzlBMywzLDAsMCwxLDI5LjgxMywyOS41WiIvPjxwYXRoIGNsYXNzPSJjbHMtMiIgZD0iTTQzLjg2OSw0NS4yNzhsLjI2NC0uMjY1YTQuNTE0LDQuNTE0LDAsMCwwLDAtNi4zNjVMNDAuNzgxLDM1LjNhNC41MTYsNC41MTYsMCwwLDAtNi4zNjYsMGwtLjI2NC4yNjUtMy4xNjctMy4xNjctMS41OTEsMS41OTEsMy4xNjcsMy4xNjctLjI2NS4yNjRhNC41MTYsNC41MTYsMCwwLDAsMCw2LjM2NmwzLjM1MywzLjM1MmE0LjUxNSw0LjUxNSwwLDAsMCw2LjM2NSwwbC4yNjUtLjI2NEw0Ny40MDksNTIsNDksNTAuNDA5Wk0zNC42NDEsNDMuMmwtLjctLjdhMi40LDIuNCwwLDAsMSwwLTMuMzgxbDIuMTc3LTIuMTc2YTIuNCwyLjQsMCwwLDEsMy4zOCwwbC43LjdabTcuODQ0LjExLTIuMTc3LDIuMTc2YTIuNCwyLjQsMCwwLDEtMy4zOCwwbC0uNy0uNyw1LjU1Ny01LjU1Ny43LjdBMi40LDIuNCwwLDAsMSw0Mi40ODUsNDMuMzA4WiIvPjwvc3ZnPg==;" vertex="1" parent="1">
          <mxGeometry x="650" y="220" width="42" height="48" as="geometry" />
        </mxCell>
        <mxCell id="E3rKdLnavc9v0Z9FRh---7" value="" style="verticalLabelPosition=bottom;verticalAlign=top;html=1;shape=mxgraph.basic.layered_rect;dx=10;outlineConnect=0;whiteSpace=wrap;strokeColor=#007FFF;" vertex="1" parent="1">
          <mxGeometry x="40" y="120" width="100" height="60" as="geometry" />
        </mxCell>
        <mxCell id="E3rKdLnavc9v0Z9FRh---11" value="" style="verticalLabelPosition=bottom;verticalAlign=top;html=1;shape=mxgraph.basic.rect;fillColor2=none;strokeWidth=1;size=20;indent=5;fillColor=#dae8fc;strokeColor=#6c8ebf;" vertex="1" parent="1">
          <mxGeometry x="240" width="150" height="200" as="geometry" />
        </mxCell>
        <mxCell id="E3rKdLnavc9v0Z9FRh---1" value="SAP Integration Suite&#xa;DEV Subaccount" style="shape=image;verticalLabelPosition=bottom;verticalAlign=top;imageAspect=0;aspect=fixed;image=data:image/svg+xml,PHN2ZyB4bWxucz0iaHR0cDovL3d3dy53My5vcmcvMjAwMC9zdmciIGlkPSJpbnRlZ3JhdGlvbi1zdWl0ZSIgdmlld0JveD0iMy45OTgwMDg0ODk2MDg3NjQ2IDMuOTk2MTY2NzA2MDg1MjA1IDQ4LjAwMjgxNTI0NjU4MjAzIDQ4LjAwMzgzMzc3MDc1MTk1IiB3aWR0aD0iNDguMDAyODE1MjQ2NTgyMDMiIGhlaWdodD0iNDguMDAzODMzNzcwNzUxOTUiPjxkZWZzPjxzdHlsZT4uY2xzLTF7ZmlsbDojMGE2ZWNmO30uY2xzLTJ7ZmlsbDojMDAzYjc0O308L3N0eWxlPjwvZGVmcz48cGF0aCBjbGFzcz0iY2xzLTEiIGQ9Ik0xNS43MjksMzIuMzY0aDIuNzI0YTIuNzI5LDIuNzI5LDAsMCwwLDIuNzI3LTIuNzJsMi43MjksMS4wNnYxLjY1OGEyLjY1NiwyLjY1NiwwLDAsMCwuNTA4LDEuNWwtMy4wMjksNGMtLjA3My0uMDA2LS4xMzUtLjA0Mi0uMjA4LS4wNDJIMTguNDU3YTIuNzI5LDIuNzI5LDAsMCwwLTIuNzMsMi43Mjl2Mi43MjRBMi43MjksMi43MjksMCwwLDAsMTguNDU3LDQ2SDIxLjE4YTIuNzI5LDIuNzI5LDAsMCwwLDIuNzI5LTIuNzI5VjQwLjU0N2EyLjY3OSwyLjY3OSwwLDAsMC0xLjE4Ny0yLjE5MWwyLjcwOS0zLjU3N2EyLjY2OCwyLjY2OCwwLDAsMCwxLjIwNy4zMTJoMi43MjRhMi42NTMsMi42NTMsMCwwLDAsMS4zNTQtLjQxMUwzMi41LDM2LjQ2NmEyLjY1MywyLjY1MywwLDAsMC0uNDExLDEuMzU0djIuNzIzYTIuNzI5LDIuNzI5LDAsMCwwLDIuNzI5LDIuNzNoMi43MjNhMi43MywyLjczLDAsMCwwLDIuNzMtMi43M1YzNy44MmEyLjcyOSwyLjcyOSwwLDAsMC0yLjczLTIuNzI5SDM0LjgyYTIuNjUzLDIuNjUzLDAsMCwwLTEuMzU0LjQxMUwzMS42OCwzMy43MTZhMi42NTMsMi42NTMsMCwwLDAsLjQxMS0xLjM1NFYyOS43N2wzLjEyOC0xLjUyNGEyLjY5MywyLjY5MywwLDAsMCwyLjMyOCwxLjM5aDIuNzI0QTIuNzI5LDIuNzI5LDAsMCwwLDQzLDI2LjkwN1YyNC4xODRhMi43MjksMi43MjksMCwwLDAtMi43MjktMi43MjlIMzcuNTQ3YTIuNzI5LDIuNzI5LDAsMCwwLTIuNzI5LDIuNzI5djIuNzIzbDAsLjAxNi0zLjA1NiwxLjQ4OGEyLjcwNywyLjcwNywwLDAsMC0yLjQtMS41SDI3LjczbC0xLjA3Mi0yLjczMmEyLjcyNywyLjcyNywwLDAsMCwyLjcwNi0yLjcyNFYxOC43MjlBMi43MjksMi43MjksMCwwLDAsMjYuNjM0LDE2SDIzLjkxMWEyLjcyOSwyLjcyOSwwLDAsMC0yLjcyOSwyLjcyOXYyLjcyNGEyLjcyOSwyLjcyOSwwLDAsMCwyLjcyOSwyLjcyOUgyNS4ybDEuMSwyLjc5MmEyLjY4MywyLjY4MywwLDAsMC0yLjMwNywyLjNsLTIuOC0xLjA4OFYyNi45MTFhMi43MjksMi43MjksMCwwLDAtMi43MjktMi43MjlIMTUuNzI5QTIuNzI5LDIuNzI5LDAsMCwwLDEzLDI2LjkxMXYyLjcyM0EyLjcyOSwyLjcyOSwwLDAsMCwxNS43MjksMzIuMzY0Wk0yMS4xOCw0My4yNzNIMTguNDU3bDAsMCwwLTIuNzI2LDIuNzI1LDBabTEzLjY0LTUuNDU1LDIuNzI1LDAsMCwyLjcyNUgzNC44MmwwLDBabTIuNzI3LTEzLjYzNiwyLjcyNiwwLDAsMi43MjVIMzcuNTQ3bDAsMFptLTguMTgzLDUuNDU2LDAsMi43MjZIMjYuNjM4bDAsMCwwLTIuNzI2Wm0tNS40NTMtOC4xODMsMCwwLDAtMi43MjYsMi43MjUsMCwwLDIuNzI2Wm0tOC4xODIsNS40NTQsMi43MjYsMCwwLDIuNzI1SDE1LjcyOWwwLDBaIi8+PHBhdGggY2xhc3M9ImNscy0xIiBkPSJNNDUuOTg5LDQwSDQzdjNoMi45ODlsLjAxMS4wMTFMNDUuOTg5LDQ5LDEwLDQ4Ljk3N2wuMDExLTUuOTg4TDEzLDQzVjQwbC0yLjk4OS0uMDExQTMuMDExLDMuMDExLDAsMCwwLDcsNDN2NS45NzdhMy4wMTEsMy4wMTEsMCwwLDAsMy4wMTEsMy4wMTJMNDUuOTg5LDUyQTMuMDExLDMuMDExLDAsMCwwLDQ5LDQ4Ljk4OVY0My4wMTFBMy4wMTEsMy4wMTEsMCwwLDAsNDUuOTg5LDQwWiIvPjxjaXJjbGUgY2xhc3M9ImNscy0xIiBjeD0iMzciIGN5PSI0NiIgcj0iMS41Ii8+PGNpcmNsZSBjbGFzcz0iY2xzLTEiIGN4PSI0MS41IiBjeT0iNDYiIHI9IjEuNSIvPjxwYXRoIGNsYXNzPSJjbHMtMiIgZD0iTTQ1Ljg0LDE2Ljk2MmE4LjQ4OSw4LjQ4OSwwLDAsMC0xMi43ODMtNS43MTNBMTEuMDIyLDExLjAyMiwwLDAsMCwyMi40MSw0QzEwLjM0Niw0LDExLjA5LDE2Ljk4OCwxMS4wOSwxNi45ODhBMTAuMjI0LDEwLjIyNCwwLDAsMCwxMywzNi44NzF2LTNhNy4yODQsNy4yODQsMCwwLDEtNi03LjE1NSw3LjQxLDcuNDEsMCwwLDEsNS4wMjctNi44NzdsMi4yNzktLjc2OC0uMjMyLTIuMzg5YTkuMTMyLDkuMTMyLDAsMCwxLDIuMDEtNy4wMTNBNy43NDQsNy43NDQsMCwwLDEsMjIuNDY1LDdhOS4yMDksOS4yMDksMCwwLDEsNy45OTQsNS4zMzlsMS4xNzYsMi44NzEsMi40MjQtMS4zMThBNy42LDcuNiwwLDAsMSwzNy40NDksMTNhNS41NDYsNS41NDYsMCwwLDEsNS40NDMsNC41MThsLjI4OCwxLjUyOCwxLjQxNS42NDZBNy40ODQsNy40ODQsMCwwLDEsNDMsMzMuODQ4djNhMTAuNDU2LDEwLjQ1NiwwLDAsMCwyLjg0LTE5Ljg4N1oiLz48L3N2Zz4=;" vertex="1" parent="1">
          <mxGeometry x="300" width="30" height="30" as="geometry" />
        </mxCell>
        <object label="Design Time" id="E3rKdLnavc9v0Z9FRh---12">
          <mxCell style="verticalLabelPosition=middle;verticalAlign=middle;html=1;shape=mxgraph.basic.rect;fillColor2=none;strokeWidth=1;size=20;indent=5;align=center;fillColor=#d5e8d4;strokeColor=#82b366;labelPosition=center;" vertex="1" parent="1">
            <mxGeometry x="240" y="70" width="150" height="50" as="geometry" />
          </mxCell>
        </object>
        <mxCell id="E3rKdLnavc9v0Z9FRh---13" value="Runtime Location&lt;div&gt;(Integration &amp;amp; APIs)&lt;/div&gt;" style="verticalLabelPosition=middle;verticalAlign=middle;html=1;shape=mxgraph.basic.rect;fillColor2=none;strokeWidth=1;size=20;indent=5;fillColor=#dae8fc;strokeColor=#6c8ebf;labelPosition=center;align=center;" vertex="1" parent="1">
          <mxGeometry x="240" y="150" width="150" height="90" as="geometry" />
        </mxCell>
        <mxCell id="E3rKdLnavc9v0Z9FRh---15" value="" style="endArrow=classic;html=1;rounded=0;entryX=0.517;entryY=-0.036;entryDx=0;entryDy=0;entryPerimeter=0;exitX=0.512;exitY=1.024;exitDx=0;exitDy=0;exitPerimeter=0;" edge="1" parent="1" source="E3rKdLnavc9v0Z9FRh---12" target="E3rKdLnavc9v0Z9FRh---13">
          <mxGeometry width="50" height="50" relative="1" as="geometry">
            <mxPoint x="310" y="100" as="sourcePoint" />
            <mxPoint x="370" y="40" as="targetPoint" />
          </mxGeometry>
        </mxCell>
        <mxCell id="E3rKdLnavc9v0Z9FRh---16" value="Deploy" style="edgeLabel;html=1;align=center;verticalAlign=middle;resizable=0;points=[];labelBackgroundColor=none;" vertex="1" connectable="0" parent="E3rKdLnavc9v0Z9FRh---15">
          <mxGeometry x="-0.2249" y="4" relative="1" as="geometry">
            <mxPoint x="19" y="1" as="offset" />
          </mxGeometry>
        </mxCell>
        <mxCell id="E3rKdLnavc9v0Z9FRh---14" value="" style="endArrow=classic;html=1;rounded=0;" edge="1" parent="1">
          <mxGeometry width="50" height="50" relative="1" as="geometry">
            <mxPoint x="340" y="300" as="sourcePoint" />
            <mxPoint x="390" y="250" as="targetPoint" />
          </mxGeometry>
        </mxCell>
      </root>
    </mxGraphModel>
  </diagram>
</mxfile>
